<svg width="246" height="36" viewBox="0 0 246 36" fill="none" xmlns="http://www.w3.org/2000/svg">
<path d="M20.8163 31.9438H20.2534C20.2534 31.9378 20.2506 31.9318 20.2495 31.9262L20.2341 31.8573C20.2242 31.812 20.2135 31.7671 20.2025 31.7226C20.1978 31.7016 20.1926 31.6807 20.1875 31.6597C20.1729 31.601 20.1575 31.5422 20.1417 31.4835L20.137 31.4666C20.1196 31.403 20.1014 31.3396 20.0825 31.2765L20.0635 31.2155C20.0505 31.1721 20.0367 31.129 20.0241 31.086C20.0166 31.0624 20.0087 31.0392 20.0012 31.016C19.9874 30.9745 19.9731 30.9329 19.9585 30.8918C19.951 30.8701 19.9431 30.848 19.9356 30.8267C19.9172 30.775 19.8983 30.7237 19.8788 30.6728C19.8745 30.662 19.8709 30.6515 19.8666 30.6407C19.8437 30.5808 19.8196 30.5213 19.7951 30.4618C19.7864 30.4401 19.7773 30.4187 19.7683 30.3974C19.7517 30.36 19.7351 30.3188 19.7181 30.2799L19.6862 30.2077C19.6696 30.1702 19.6526 30.1328 19.6352 30.0954C19.6246 30.0722 19.6135 30.0486 19.6025 30.0254C19.5823 29.9824 19.563 29.9397 19.5405 29.8974C19.5322 29.8813 19.5247 29.8649 19.5164 29.8484C19.4884 29.7926 19.4596 29.7361 19.4304 29.6822L19.3909 29.6122L19.3352 29.5108L19.2918 29.436C19.2736 29.4045 19.2555 29.3731 19.2369 29.3417C19.2223 29.3162 19.2073 29.2908 19.1923 29.2668C19.1718 29.2328 19.1529 29.1994 19.1303 29.1658L19.0735 29.0744C19.0467 29.0325 19.0198 28.9902 18.9922 28.9487C18.9748 28.9225 18.9575 28.8967 18.9397 28.8709C18.9219 28.845 18.9026 28.8155 18.8836 28.7882C18.8647 28.7608 18.8442 28.7335 18.8268 28.7066C18.8094 28.6796 18.7905 28.6553 18.7719 28.6317C18.7534 28.6081 18.7324 28.5767 18.7123 28.5494L18.6567 28.4745C18.6172 28.4248 18.5809 28.375 18.5422 28.3248L18.4881 28.2564C18.4652 28.2275 18.4415 28.1991 18.4182 28.1707L18.3661 28.1078C18.342 28.079 18.3176 28.0505 18.2931 28.0217L18.2418 27.9626L18.1652 27.8757L18.1198 27.8256C18.0254 27.7219 17.9287 27.6198 17.8297 27.5202L17.7862 27.4764L17.6954 27.3877L17.6508 27.3451C17.6192 27.3148 17.5877 27.2848 17.5557 27.2552L17.5229 27.2253C17.4112 27.1224 17.2963 27.0221 17.1795 26.9259L17.1475 26.8993C17.1115 26.8694 17.0752 26.8398 17.0386 26.8106L17.0023 26.7815C16.9628 26.7515 16.9269 26.722 16.8886 26.6924L16.8692 26.6778C16.7401 26.579 16.6079 26.4828 16.4745 26.3904L16.4559 26.3773C16.4137 26.3485 16.3714 26.32 16.3288 26.2919L16.3008 26.2736C16.2574 26.2448 16.2135 26.2167 16.1697 26.1887L16.1622 26.1842C16.017 26.0921 15.8689 26.0039 15.7181 25.9196L15.7122 25.9158C15.6645 25.8893 15.6167 25.8634 15.5689 25.8376L15.548 25.8264C15.2938 25.6904 15.0327 25.5657 14.7648 25.4521L14.7482 25.445C14.6776 25.4151 14.6065 25.3863 14.5347 25.3578H15.9475C16.1776 25.3578 16.3643 25.1067 16.3643 24.7965C16.3643 24.4862 16.1776 24.2351 15.9475 24.2351H15.5267C15.5527 24.1722 15.5816 24.1011 15.6127 24.021C16.0106 23.786 16.7109 23.2853 17.4057 22.3654L17.4112 22.3583C17.4639 22.2894 17.5156 22.2182 17.5664 22.1446L17.5766 22.13C17.6271 22.0578 17.6777 21.9833 17.7274 21.9054L17.7408 21.8849C17.7645 21.8474 17.7882 21.81 17.8119 21.7726C17.8119 21.7726 17.8119 21.7696 17.8147 21.7677C17.8391 21.7303 17.8632 21.6891 17.8873 21.6491L17.9027 21.6233C17.9232 21.5888 17.9441 21.5537 17.9643 21.5181C17.9682 21.5117 17.9722 21.5054 17.9757 21.4986C17.999 21.4582 18.0223 21.417 18.0452 21.3755L18.061 21.3467C18.0799 21.3123 18.0985 21.2775 18.117 21.2423C18.1226 21.2325 18.1281 21.2224 18.1332 21.2123C18.1553 21.17 18.1774 21.1274 18.1995 21.084L18.2149 21.0537C18.2323 21.0185 18.2501 20.9826 18.2674 20.9466L18.2864 20.9092C18.3077 20.865 18.3286 20.8201 18.3495 20.7748L18.3626 20.746C18.3799 20.7086 18.3969 20.6712 18.4139 20.6338L18.434 20.5888C18.4537 20.5436 18.4735 20.4979 18.4924 20.4519C18.496 20.4436 18.4995 20.435 18.5027 20.4268C18.5205 20.3845 18.5378 20.3415 18.5552 20.2981L18.5749 20.2487C18.5911 20.2075 18.6073 20.166 18.6231 20.1244L18.6349 20.093C18.6535 20.0436 18.6716 19.993 18.6898 19.9433L18.7088 19.8901C18.723 19.8505 18.7368 19.81 18.7506 19.7696C18.7557 19.7547 18.7609 19.7397 18.7656 19.7247C18.783 19.6731 18.8003 19.6203 18.8173 19.5675C18.8228 19.5492 18.8288 19.5301 18.8343 19.5129L18.8738 19.3898C18.8789 19.3718 18.8844 19.3523 18.8896 19.3363C18.9057 19.282 18.9219 19.2266 18.9373 19.1708C18.9424 19.1532 18.9472 19.1353 18.9519 19.1173C18.9638 19.0743 18.9756 19.0312 18.9871 18.9875C18.9922 18.9676 18.9973 18.9478 19.0028 18.928C19.0175 18.8703 19.0321 18.8123 19.0463 18.7536L19.0581 18.7045C19.0692 18.6577 19.0802 18.6106 19.0909 18.5631L19.1051 18.4994C19.1185 18.4384 19.1319 18.3774 19.1446 18.3153C19.1473 18.3033 19.1497 18.291 19.1521 18.2779C19.1631 18.2244 19.1738 18.1701 19.184 18.1158C19.1884 18.0938 19.1923 18.0717 19.1967 18.0496C19.2069 17.9938 19.2168 17.9373 19.2267 17.8816C19.2286 17.8696 19.231 17.858 19.233 17.8464C19.244 17.7805 19.2548 17.7142 19.2654 17.6473C19.2689 17.6248 19.2725 17.6024 19.2756 17.5796C19.2839 17.5253 19.2918 17.4707 19.2997 17.4153L19.3068 17.3644C19.3163 17.2955 19.3254 17.2263 19.334 17.1559C19.3368 17.1338 19.3392 17.1117 19.3419 17.0893C19.3488 17.0334 19.3551 16.9773 19.3609 16.9209C19.3633 16.9007 19.3656 16.8808 19.3676 16.8606C19.3752 16.7883 19.3823 16.7153 19.3889 16.6417C19.3889 16.6211 19.3925 16.6005 19.394 16.5796C19.3992 16.5204 19.4043 16.4609 19.4087 16.4011C19.4087 16.379 19.4122 16.3569 19.4138 16.3348C19.4193 16.2585 19.4244 16.1816 19.4292 16.1043C19.4292 16.0867 19.4292 16.0669 19.4319 16.0511C19.4355 15.9868 19.439 15.922 19.4418 15.8569C19.4418 15.8333 19.4418 15.8098 19.445 15.7862C19.4481 15.7057 19.4513 15.6249 19.4537 15.5429C19.4537 15.5317 19.4537 15.5201 19.4537 15.5085C19.4558 15.4356 19.4573 15.362 19.4584 15.2877C19.4584 15.2634 19.4584 15.239 19.4584 15.2147C19.4584 15.1349 19.4584 15.0545 19.4584 14.9737V14.955C19.4584 14.8689 19.4584 14.7817 19.4584 14.693V14.6182C19.4584 14.5433 19.4552 14.4647 19.4533 14.3869V14.3446C19.4505 14.2548 19.4469 14.1638 19.4434 14.0725C19.4434 14.0489 19.441 14.025 19.4402 14.0014C19.4368 13.9246 19.4329 13.8472 19.4284 13.7694C19.4284 13.7503 19.4284 13.732 19.4252 13.7114C19.4197 13.6178 19.4136 13.5235 19.4071 13.4284L19.4023 13.3622C19.3964 13.2829 19.3905 13.2031 19.3838 13.1227C19.3838 13.0995 19.3802 13.0763 19.3783 13.0531C19.37 12.9558 19.3609 12.8573 19.3514 12.7585C19.3514 12.7398 19.3475 12.7211 19.3459 12.702C19.3376 12.6178 19.3285 12.5329 19.3194 12.4472C19.3167 12.4214 19.3139 12.3959 19.3108 12.3701C19.2997 12.2683 19.2879 12.1661 19.2752 12.0625C19.2752 12.0497 19.2717 12.037 19.2701 12.025C19.2588 11.9322 19.2468 11.8389 19.2342 11.7451C19.2302 11.7174 19.2267 11.6897 19.2227 11.662C19.208 11.5557 19.1929 11.4486 19.1773 11.3405C17.5983 0.684323 6.40876 2.4137 6.40876 2.4137L6.76719 4.70333L0 11.4809L0.295667 14.098L2.85917 15.5949C2.97345 15.3196 3.12017 15.0573 3.29655 14.8131C4.95055 13.0044 8.15947 11.5845 9.07805 11.29C9.26201 11.2313 9.36662 11.2017 9.36662 11.2017C4.97266 16.593 5.47241 22.7696 5.66821 24.2418C5.46452 24.2793 5.30701 24.5124 5.30701 24.7968C5.30701 25.1067 5.49373 25.3582 5.72387 25.3582H7.13668C4.78699 26.2907 2.92185 28.0666 1.94848 30.2982C1.94734 30.3013 1.94602 30.3043 1.94454 30.3072C1.87269 30.4729 1.80585 30.6409 1.74401 30.8113C1.74411 30.8131 1.74411 30.8148 1.74401 30.8166C1.72743 30.863 1.71124 30.9094 1.69545 30.9561C1.68953 30.973 1.68361 30.9898 1.67808 31.007C1.66387 31.049 1.65071 31.0912 1.63861 31.1339C1.6315 31.1556 1.62479 31.1777 1.61808 31.1994C1.60545 31.2394 1.59321 31.2799 1.58137 31.3203L1.56005 31.3951C1.549 31.4326 1.53795 31.4726 1.52768 31.5115C1.52018 31.5392 1.51308 31.5665 1.50597 31.5942C1.4965 31.6317 1.48663 31.6691 1.47755 31.7065C1.46847 31.7439 1.45978 31.7814 1.4511 31.821C1.44242 31.8607 1.43136 31.9071 1.42189 31.9505H0.85858C0.750258 31.9483 0.642551 31.9665 0.541778 32.0043C0.441006 32.042 0.3492 32.0984 0.271747 32.1703C0.194294 32.2421 0.13275 32.3279 0.0907365 32.4226C0.0487226 32.5172 0.0270812 32.6189 0.0270812 32.7216C0.0270812 32.8244 0.0487226 32.926 0.0907365 33.0207C0.13275 33.1154 0.194294 33.2012 0.271747 33.273C0.3492 33.3448 0.441006 33.4013 0.541778 33.439C0.642551 33.4768 0.750258 33.495 0.85858 33.4928H20.8234C20.9318 33.495 21.0395 33.4768 21.1402 33.439C21.241 33.4013 21.3328 33.3448 21.4103 33.273C21.4877 33.2012 21.5493 33.1154 21.5913 33.0207C21.6333 32.926 21.6549 32.8244 21.6549 32.7216C21.6549 32.6189 21.6333 32.5172 21.5913 32.4226C21.5493 32.3279 21.4877 32.2421 21.4103 32.1703C21.3328 32.0984 21.241 32.042 21.1402 32.0043C21.0395 31.9665 20.9318 31.9483 20.8234 31.9505L20.8163 31.9438Z" fill="#595653"/>
<path d="M44.2069 31.9438H43.644C43.644 31.9378 43.6413 31.9318 43.6401 31.9262L43.6247 31.8573C43.6148 31.812 43.6042 31.7671 43.5931 31.7226C43.5884 31.7016 43.5832 31.6807 43.5781 31.6597C43.5635 31.601 43.5481 31.5422 43.5323 31.4835L43.5276 31.4666C43.5102 31.403 43.4921 31.3396 43.4731 31.2765L43.4542 31.2155C43.4411 31.1721 43.4273 31.129 43.4147 31.086C43.4072 31.0624 43.3993 31.0392 43.3918 31.016C43.378 30.9745 43.3638 30.9329 43.3492 30.8918C43.3417 30.8701 43.3338 30.848 43.3263 30.8267C43.3078 30.775 43.2889 30.7237 43.2694 30.6728C43.2651 30.662 43.2615 30.6515 43.2572 30.6407C43.2343 30.5808 43.2102 30.5213 43.1857 30.4618C43.177 30.4401 43.168 30.4187 43.1589 30.3974C43.1423 30.36 43.1257 30.3188 43.1088 30.2799L43.0768 30.2077C43.0602 30.1702 43.0432 30.1328 43.0259 30.0954C43.0152 30.0722 43.0041 30.0486 42.9931 30.0254C42.973 29.9824 42.9536 29.9397 42.9311 29.8974C42.9228 29.8813 42.9153 29.8649 42.907 29.8484C42.879 29.7926 42.8502 29.7361 42.821 29.6822L42.7815 29.6122L42.7259 29.5108L42.6824 29.436C42.6643 29.4045 42.6461 29.3731 42.6276 29.3417C42.613 29.3162 42.598 29.2908 42.583 29.2668C42.5624 29.2328 42.5435 29.1994 42.521 29.1658L42.4641 29.0744C42.4373 29.0325 42.4104 28.9902 42.3828 28.9487C42.3654 28.9225 42.3481 28.8967 42.3303 28.8709C42.3125 28.845 42.2932 28.8155 42.2743 28.7882C42.2553 28.7608 42.2348 28.7335 42.2174 28.7066C42.2 28.6796 42.1811 28.6553 42.1625 28.6317C42.144 28.6081 42.1231 28.5767 42.1029 28.5494L42.0473 28.4745C42.0078 28.4248 41.9715 28.375 41.9328 28.3248L41.8787 28.2564C41.8558 28.2275 41.8321 28.1991 41.8088 28.1707L41.7567 28.1078C41.7327 28.079 41.7082 28.0505 41.6837 28.0217L41.6324 27.9626L41.5558 27.8757L41.5104 27.8256C41.4161 27.7219 41.3194 27.6198 41.2203 27.5202L41.1769 27.4764L41.0861 27.3877L41.0415 27.3451C41.0099 27.3148 40.9783 27.2848 40.9463 27.2552L40.9136 27.2253C40.8018 27.1224 40.687 27.0221 40.5701 26.9259L40.5381 26.8993C40.5021 26.8694 40.4658 26.8398 40.4292 26.8106L40.3929 26.7815C40.3534 26.7515 40.3175 26.722 40.2792 26.6924L40.2598 26.6778C40.1308 26.579 39.9985 26.4828 39.8651 26.3904L39.8465 26.3773C39.8043 26.3485 39.7621 26.32 39.7194 26.2919L39.6914 26.2736C39.648 26.2448 39.6042 26.2167 39.5604 26.1887L39.5529 26.1842C39.4076 26.0921 39.2596 26.0039 39.1088 25.9196L39.1028 25.9158C39.0551 25.8893 39.0073 25.8634 38.9595 25.8376L38.9386 25.8264C38.6844 25.6904 38.4233 25.5657 38.1554 25.4521L38.1389 25.445C38.0682 25.4151 37.9971 25.3863 37.9253 25.3578H39.3381C39.5682 25.3578 39.755 25.1067 39.755 24.7965C39.755 24.4862 39.5682 24.2351 39.3381 24.2351H38.9173C38.9434 24.1722 38.9722 24.1011 39.0034 24.021C39.4013 23.786 40.1016 23.2853 40.7963 22.3654L40.8018 22.3583C40.8545 22.2894 40.9062 22.2182 40.957 22.1446L40.9672 22.13C41.0178 22.0578 41.0683 21.9833 41.118 21.9054L41.1315 21.8849C41.1551 21.8474 41.1788 21.81 41.2025 21.7726C41.2025 21.7726 41.2025 21.7696 41.2053 21.7677C41.2298 21.7303 41.2538 21.6891 41.2779 21.6491L41.2933 21.6233C41.3138 21.5888 41.3348 21.5537 41.3549 21.5181C41.3588 21.5117 41.3628 21.5054 41.3663 21.4986C41.3896 21.4582 41.4129 21.417 41.4358 21.3755L41.4516 21.3467C41.4705 21.3123 41.4891 21.2775 41.5077 21.2423C41.5132 21.2325 41.5187 21.2224 41.5238 21.2123C41.5459 21.17 41.5681 21.1274 41.5902 21.084L41.6056 21.0537C41.6229 21.0185 41.6407 20.9826 41.6581 20.9466L41.677 20.9092C41.6983 20.865 41.7192 20.8201 41.7402 20.7748L41.7532 20.746C41.7706 20.7086 41.7875 20.6712 41.8045 20.6338L41.8246 20.5888C41.8444 20.5436 41.8641 20.4979 41.8831 20.4519C41.8866 20.4436 41.8902 20.435 41.8933 20.4268C41.9111 20.3845 41.9285 20.3415 41.9458 20.2981L41.9656 20.2487C41.9817 20.2075 41.9979 20.166 42.0137 20.1244L42.0256 20.093C42.0441 20.0436 42.0623 19.993 42.0804 19.9433L42.0994 19.8901C42.1136 19.8505 42.1274 19.81 42.1412 19.7696C42.1464 19.7547 42.1515 19.7397 42.1562 19.7247C42.1736 19.6731 42.191 19.6203 42.2079 19.5675C42.2135 19.5492 42.2194 19.5301 42.2249 19.5129L42.2644 19.3898C42.2695 19.3718 42.275 19.3523 42.2802 19.3363C42.2964 19.282 42.3125 19.2266 42.3279 19.1708C42.3331 19.1532 42.3378 19.1353 42.3425 19.1173C42.3544 19.0743 42.3662 19.0312 42.3777 18.9875C42.3828 18.9676 42.3879 18.9478 42.3935 18.928C42.4081 18.8703 42.4227 18.8123 42.4369 18.7536L42.4487 18.7045C42.4598 18.6577 42.4708 18.6106 42.4815 18.5631L42.4957 18.4994C42.5091 18.4384 42.5226 18.3774 42.5352 18.3153C42.5379 18.3033 42.5403 18.291 42.5427 18.2779C42.5537 18.2244 42.5644 18.1701 42.5747 18.1158C42.579 18.0938 42.583 18.0717 42.5873 18.0496C42.5976 17.9938 42.6074 17.9373 42.6173 17.8816C42.6193 17.8696 42.6216 17.858 42.6236 17.8464C42.6347 17.7805 42.6455 17.7142 42.656 17.6473C42.6595 17.6248 42.6631 17.6024 42.6662 17.5796C42.6745 17.5253 42.6824 17.4707 42.6903 17.4153L42.6974 17.3644C42.7069 17.2955 42.716 17.2263 42.7247 17.1559C42.7274 17.1338 42.7298 17.1117 42.7326 17.0893C42.7394 17.0334 42.7457 16.9773 42.7515 16.9209C42.7539 16.9007 42.7562 16.8808 42.7582 16.8606C42.7659 16.7883 42.773 16.7153 42.7795 16.6417C42.7795 16.6211 42.7831 16.6005 42.7847 16.5796C42.7898 16.5204 42.7949 16.4609 42.7993 16.4011C42.7993 16.379 42.8028 16.3569 42.8044 16.3348C42.8099 16.2585 42.8151 16.1816 42.8198 16.1043C42.8198 16.0867 42.8198 16.0669 42.8226 16.0511C42.8261 15.9868 42.8297 15.922 42.8324 15.8569C42.8324 15.8333 42.8324 15.8098 42.8356 15.7862C42.8387 15.7057 42.8419 15.6249 42.8443 15.5429C42.8443 15.5317 42.8443 15.5201 42.8443 15.5085C42.8464 15.4356 42.848 15.362 42.849 15.2877C42.849 15.2634 42.849 15.239 42.849 15.2147C42.849 15.1349 42.849 15.0545 42.849 14.9737V14.955C42.849 14.8689 42.849 14.7817 42.849 14.693V14.6182C42.849 14.5433 42.8459 14.4647 42.8439 14.3869V14.3446C42.8411 14.2548 42.8376 14.1638 42.834 14.0725C42.834 14.0489 42.8316 14.025 42.8309 14.0014C42.8274 13.9246 42.8235 13.8472 42.819 13.7694C42.819 13.7503 42.819 13.732 42.8159 13.7114C42.8103 13.6178 42.8043 13.5235 42.7977 13.4284L42.793 13.3622C42.787 13.2829 42.7811 13.2031 42.7744 13.1227C42.7744 13.0995 42.7709 13.0763 42.7689 13.0531C42.7606 12.9558 42.7515 12.8573 42.742 12.7585C42.742 12.7398 42.7381 12.7211 42.7365 12.702C42.7282 12.6178 42.7191 12.5329 42.7101 12.4472C42.7073 12.4214 42.7045 12.3959 42.7014 12.3701C42.6903 12.2683 42.6785 12.1661 42.6658 12.0625C42.6658 12.0497 42.6623 12.037 42.6607 12.025C42.6494 11.9322 42.6374 11.8389 42.6248 11.7451C42.6208 11.7174 42.6173 11.6897 42.6133 11.662C42.5986 11.5557 42.5835 11.4486 42.568 11.3405C40.989 0.684323 29.7994 2.4137 29.7994 2.4137L30.1578 4.70333L23.3906 11.4809L23.6863 14.098L26.2498 15.5949C26.3641 15.3196 26.5108 15.0573 26.6872 14.8131C28.3412 13.0044 31.5501 11.5845 32.4687 11.29C32.6526 11.2313 32.7572 11.2017 32.7572 11.2017C28.3633 16.593 28.863 22.7696 29.0588 24.2418C28.8551 24.2793 28.6976 24.5124 28.6976 24.7968C28.6976 25.1067 28.8844 25.3582 29.1145 25.3582H30.5273C28.1776 26.2907 26.3125 28.0666 25.3391 30.2982C25.338 30.3013 25.3366 30.3043 25.3352 30.3072C25.2633 30.4729 25.1965 30.6409 25.1346 30.8113C25.1347 30.8131 25.1347 30.8148 25.1346 30.8166C25.1181 30.863 25.1019 30.9094 25.0861 30.9561C25.0802 30.973 25.0742 30.9898 25.0687 31.007C25.0545 31.049 25.0413 31.0912 25.0292 31.1339C25.0221 31.1556 25.0154 31.1777 25.0087 31.1994C24.9961 31.2394 24.9838 31.2799 24.972 31.3203L24.9507 31.3951C24.9396 31.4326 24.9286 31.4726 24.9183 31.5115C24.9108 31.5392 24.9037 31.5665 24.8966 31.5942C24.8871 31.6317 24.8773 31.6691 24.8682 31.7065C24.8591 31.7439 24.8504 31.7814 24.8417 31.821C24.833 31.8607 24.822 31.9071 24.8125 31.9505H24.2492C24.1409 31.9483 24.0332 31.9665 23.9324 32.0043C23.8316 32.042 23.7398 32.0984 23.6624 32.1703C23.5849 32.2421 23.5234 32.3279 23.4814 32.4226C23.4393 32.5172 23.4177 32.6189 23.4177 32.7216C23.4177 32.8244 23.4393 32.926 23.4814 33.0207C23.5234 33.1154 23.5849 33.2012 23.6624 33.273C23.7398 33.3448 23.8316 33.4013 23.9324 33.439C24.0332 33.4768 24.1409 33.495 24.2492 33.4928H44.2141C44.3224 33.495 44.4301 33.4768 44.5309 33.439C44.6316 33.4013 44.7234 33.3448 44.8009 33.273C44.8783 33.2012 44.9399 33.1154 44.9819 33.0207C45.0239 32.926 45.0456 32.8244 45.0456 32.7216C45.0456 32.6189 45.0239 32.5172 44.9819 32.4226C44.9399 32.3279 44.8783 32.2421 44.8009 32.1703C44.7234 32.0984 44.6316 32.042 44.5309 32.0043C44.4301 31.9665 44.3224 31.9483 44.2141 31.9505L44.2069 31.9438Z" fill="#595653"/>
<path d="M67.5898 31.9438H67.0269C67.0269 31.9378 67.0241 31.9318 67.0229 31.9262L67.0075 31.8573C66.9976 31.812 66.987 31.7671 66.9759 31.7226C66.9712 31.7016 66.9661 31.6807 66.9609 31.6597C66.9463 31.601 66.9309 31.5422 66.9151 31.4835L66.9104 31.4666C66.893 31.403 66.8749 31.3396 66.8559 31.2765L66.837 31.2155C66.8239 31.1721 66.8101 31.129 66.7975 31.086C66.79 31.0624 66.7821 31.0392 66.7746 31.016C66.7608 30.9745 66.7466 30.9329 66.732 30.8918C66.7245 30.8701 66.7166 30.848 66.7091 30.8267C66.6907 30.775 66.6717 30.7237 66.6522 30.6728C66.6479 30.662 66.6443 30.6515 66.64 30.6407C66.6171 30.5808 66.593 30.5213 66.5685 30.4618C66.5599 30.4401 66.5508 30.4187 66.5417 30.3974C66.5251 30.36 66.5085 30.3188 66.4916 30.2799L66.4596 30.2077C66.443 30.1702 66.426 30.1328 66.4087 30.0954C66.398 30.0722 66.387 30.0486 66.3759 30.0254C66.3558 29.9824 66.3364 29.9397 66.3139 29.8974C66.3056 29.8813 66.2981 29.8649 66.2899 29.8484C66.2618 29.7926 66.233 29.7361 66.2038 29.6822L66.1643 29.6122L66.1087 29.5108L66.0652 29.436C66.0471 29.4045 66.0289 29.3731 66.0104 29.3417C65.9958 29.3162 65.9808 29.2908 65.9658 29.2668C65.9452 29.2328 65.9263 29.1994 65.9038 29.1658L65.8469 29.0744C65.8201 29.0325 65.7933 28.9902 65.7656 28.9487C65.7483 28.9225 65.7309 28.8967 65.7131 28.8709C65.6954 28.845 65.676 28.8155 65.6571 28.7882C65.6381 28.7608 65.6176 28.7335 65.6002 28.7066C65.5829 28.6796 65.5639 28.6553 65.5454 28.6317C65.5268 28.6081 65.5059 28.5767 65.4857 28.5494L65.4301 28.4745C65.3906 28.4248 65.3543 28.375 65.3156 28.3248L65.2615 28.2564C65.2386 28.2275 65.2149 28.1991 65.1917 28.1707L65.1396 28.1078C65.1155 28.079 65.091 28.0505 65.0665 28.0217L65.0152 27.9626L64.9386 27.8757L64.8932 27.8256C64.7989 27.7219 64.7022 27.6198 64.6031 27.5202L64.5597 27.4764L64.4689 27.3877L64.4243 27.3451C64.3927 27.3148 64.3611 27.2848 64.3291 27.2552L64.2964 27.2253C64.1847 27.1224 64.0698 27.0221 63.9529 26.9259L63.921 26.8993C63.8849 26.8694 63.8486 26.8398 63.812 26.8106L63.7757 26.7815C63.7362 26.7515 63.7003 26.722 63.662 26.6924L63.6427 26.6778C63.5136 26.579 63.3813 26.4828 63.2479 26.3904L63.2294 26.3773C63.1871 26.3485 63.1449 26.32 63.1023 26.2919L63.0742 26.2736C63.0308 26.2448 62.987 26.2167 62.9432 26.1887L62.9357 26.1842C62.7904 26.0921 62.6424 26.0039 62.4916 25.9196L62.4857 25.9158C62.4379 25.8893 62.3901 25.8634 62.3424 25.8376L62.3214 25.8264C62.0672 25.6904 61.8062 25.5657 61.5383 25.4521L61.5217 25.445C61.451 25.4151 61.38 25.3863 61.3081 25.3578H62.7209C62.9511 25.3578 63.1378 25.1067 63.1378 24.7965C63.1378 24.4862 62.9511 24.2351 62.7209 24.2351H62.3001C62.3262 24.1722 62.355 24.1011 62.3862 24.021C62.7841 23.786 63.4844 23.2853 64.1791 22.3654L64.1847 22.3583C64.2373 22.2894 64.289 22.2182 64.3398 22.1446L64.3501 22.13C64.4006 22.0578 64.4511 21.9833 64.5008 21.9054L64.5143 21.8849C64.538 21.8474 64.5616 21.81 64.5853 21.7726C64.5853 21.7726 64.5853 21.7696 64.5881 21.7677C64.6126 21.7303 64.6366 21.6891 64.6607 21.6491L64.6761 21.6233C64.6966 21.5888 64.7176 21.5537 64.7377 21.5181C64.7416 21.5117 64.7456 21.5054 64.7491 21.4986C64.7724 21.4582 64.7957 21.417 64.8186 21.3755L64.8344 21.3467C64.8534 21.3123 64.8719 21.2775 64.8905 21.2423C64.896 21.2325 64.9015 21.2224 64.9066 21.2123C64.9288 21.17 64.9509 21.1274 64.973 21.084L64.9884 21.0537C65.0057 21.0185 65.0235 20.9826 65.0409 20.9466L65.0598 20.9092C65.0811 20.865 65.102 20.8201 65.123 20.7748L65.136 20.746C65.1534 20.7086 65.1703 20.6712 65.1873 20.6338L65.2074 20.5888C65.2272 20.5436 65.2469 20.4979 65.2659 20.4519C65.2694 20.4436 65.273 20.435 65.2761 20.4268C65.2939 20.3845 65.3113 20.3415 65.3286 20.2981L65.3484 20.2487C65.3646 20.2075 65.3807 20.166 65.3965 20.1244L65.4084 20.093C65.4269 20.0436 65.4451 19.993 65.4632 19.9433L65.4822 19.8901C65.4964 19.8505 65.5102 19.81 65.524 19.7696C65.5292 19.7547 65.5343 19.7397 65.539 19.7247C65.5564 19.6731 65.5738 19.6203 65.5908 19.5675C65.5963 19.5492 65.6022 19.5301 65.6077 19.5129L65.6472 19.3898C65.6523 19.3718 65.6579 19.3523 65.663 19.3363C65.6792 19.282 65.6954 19.2266 65.7108 19.1708C65.7159 19.1532 65.7206 19.1353 65.7254 19.1173C65.7372 19.0743 65.749 19.0312 65.7605 18.9875C65.7656 18.9676 65.7708 18.9478 65.7763 18.928C65.7909 18.8703 65.8055 18.8123 65.8197 18.7536L65.8315 18.7045C65.8426 18.6577 65.8537 18.6106 65.8643 18.5631L65.8785 18.4994C65.8919 18.4384 65.9054 18.3774 65.918 18.3153C65.9208 18.3033 65.9231 18.291 65.9255 18.2779C65.9366 18.2244 65.9472 18.1701 65.9575 18.1158C65.9618 18.0938 65.9658 18.0717 65.9701 18.0496C65.9804 17.9938 65.9902 17.9373 66.0001 17.8816C66.0021 17.8696 66.0044 17.858 66.0064 17.8464C66.0175 17.7805 66.0283 17.7142 66.0388 17.6473C66.0423 17.6248 66.0459 17.6024 66.0491 17.5796C66.0573 17.5253 66.0652 17.4707 66.0731 17.4153L66.0802 17.3644C66.0897 17.2955 66.0988 17.2263 66.1075 17.1559C66.1102 17.1338 66.1126 17.1117 66.1154 17.0893C66.1222 17.0334 66.1285 16.9773 66.1343 16.9209C66.1367 16.9007 66.1391 16.8808 66.141 16.8606C66.1487 16.7883 66.1558 16.7153 66.1624 16.6417C66.1624 16.6211 66.1659 16.6005 66.1675 16.5796C66.1726 16.5204 66.1777 16.4609 66.1821 16.4011C66.1821 16.379 66.1856 16.3569 66.1872 16.3348C66.1927 16.2585 66.1979 16.1816 66.2026 16.1043C66.2026 16.0867 66.2026 16.0669 66.2054 16.0511C66.2089 15.9868 66.2125 15.922 66.2152 15.8569C66.2152 15.8333 66.2152 15.8098 66.2184 15.7862C66.2216 15.7057 66.2247 15.6249 66.2271 15.5429C66.2271 15.5317 66.2271 15.5201 66.2271 15.5085C66.2292 15.4356 66.2308 15.362 66.2318 15.2877C66.2318 15.2634 66.2318 15.239 66.2318 15.2147C66.2318 15.1349 66.2318 15.0545 66.2318 14.9737V14.955C66.2318 14.8689 66.2318 14.7817 66.2318 14.693V14.6182C66.2318 14.5433 66.2287 14.4647 66.2267 14.3869V14.3446C66.2239 14.2548 66.2204 14.1638 66.2168 14.0725C66.2168 14.0489 66.2145 14.025 66.2137 14.0014C66.2102 13.9246 66.2063 13.8472 66.2018 13.7694C66.2018 13.7503 66.2018 13.732 66.1987 13.7114C66.1931 13.6178 66.1871 13.5235 66.1805 13.4284L66.1758 13.3622C66.1698 13.2829 66.1639 13.2031 66.1572 13.1227C66.1572 13.0995 66.1537 13.0763 66.1517 13.0531C66.1434 12.9558 66.1343 12.8573 66.1248 12.7585C66.1248 12.7398 66.1209 12.7211 66.1193 12.702C66.111 12.6178 66.102 12.5329 66.0929 12.4472C66.0901 12.4214 66.0873 12.3959 66.0842 12.3701C66.0731 12.2683 66.0613 12.1661 66.0487 12.0625C66.0487 12.0497 66.0451 12.037 66.0435 12.025C66.0322 11.9322 66.0202 11.8389 66.0076 11.7451C66.0037 11.7174 66.0001 11.6897 65.9962 11.662C65.9814 11.5557 65.9663 11.4486 65.9508 11.3405C64.3718 0.684323 53.1822 2.4137 53.1822 2.4137L53.5406 4.70333L46.7734 11.4809L47.0691 14.098L49.6326 15.5949C49.7469 15.3196 49.8936 15.0573 50.07 14.8131C51.724 13.0044 54.9329 11.5845 55.8515 11.29C56.0354 11.2313 56.1401 11.2017 56.1401 11.2017C51.7461 16.593 52.2458 22.7696 52.4416 24.2418C52.238 24.2793 52.0805 24.5124 52.0805 24.7968C52.0805 25.1067 52.2672 25.3582 52.4973 25.3582H53.9101C51.5604 26.2907 49.6953 28.0666 48.7219 30.2982C48.7208 30.3013 48.7195 30.3043 48.718 30.3072C48.6461 30.4729 48.5793 30.6409 48.5174 30.8113C48.5175 30.8131 48.5175 30.8148 48.5174 30.8166C48.5009 30.863 48.4847 30.9094 48.4689 30.9561C48.463 30.973 48.457 30.9898 48.4515 31.007C48.4373 31.049 48.4241 31.0912 48.412 31.1339C48.4049 31.1556 48.3982 31.1777 48.3915 31.1994C48.3789 31.2394 48.3666 31.2799 48.3548 31.3203L48.3335 31.3951C48.3224 31.4326 48.3114 31.4726 48.3011 31.5115C48.2936 31.5392 48.2865 31.5665 48.2794 31.5942C48.2699 31.6317 48.2601 31.6691 48.251 31.7065C48.2419 31.7439 48.2332 31.7814 48.2245 31.821C48.2159 31.8607 48.2048 31.9071 48.1953 31.9505H47.632C47.5237 31.9483 47.416 31.9665 47.3152 32.0043C47.2144 32.042 47.1226 32.0984 47.0452 32.1703C46.9677 32.2421 46.9062 32.3279 46.8642 32.4226C46.8222 32.5172 46.8005 32.6189 46.8005 32.7216C46.8005 32.8244 46.8222 32.926 46.8642 33.0207C46.9062 33.1154 46.9677 33.2012 47.0452 33.273C47.1226 33.3448 47.2144 33.4013 47.3152 33.439C47.416 33.4768 47.5237 33.495 47.632 33.4928H67.5969C67.7052 33.495 67.8129 33.4768 67.9137 33.439C68.0144 33.4013 68.1063 33.3448 68.1837 33.273C68.2612 33.2012 68.3227 33.1154 68.3647 33.0207C68.4067 32.926 68.4284 32.8244 68.4284 32.7216C68.4284 32.6189 68.4067 32.5172 68.3647 32.4226C68.3227 32.3279 68.2612 32.2421 68.1837 32.1703C68.1063 32.0984 68.0144 32.042 67.9137 32.0043C67.8129 31.9665 67.7052 31.9483 67.5969 31.9505L67.5898 31.9438Z" fill="#595653"/>
<path d="M90.9804 31.9438H90.4175C90.4175 31.9378 90.4147 31.9318 90.4135 31.9262L90.3981 31.8573C90.3883 31.812 90.3776 31.7671 90.3666 31.7226C90.3618 31.7016 90.3567 31.6807 90.3516 31.6597C90.3369 31.601 90.3216 31.5422 90.3058 31.4835L90.301 31.4666C90.2837 31.403 90.2655 31.3396 90.2465 31.2765L90.2276 31.2155C90.2146 31.1721 90.2008 31.129 90.1881 31.086C90.1806 31.0624 90.1727 31.0392 90.1652 31.016C90.1514 30.9745 90.1372 30.9329 90.1226 30.8918C90.1151 30.8701 90.1072 30.848 90.0997 30.8267C90.0813 30.775 90.0623 30.7237 90.0429 30.6728C90.0385 30.662 90.035 30.6515 90.0306 30.6407C90.0077 30.5808 89.9836 30.5213 89.9592 30.4618C89.9505 30.4401 89.9414 30.4187 89.9323 30.3974C89.9157 30.36 89.8992 30.3188 89.8822 30.2799L89.8502 30.2077C89.8336 30.1702 89.8167 30.1328 89.7993 30.0954C89.7886 30.0722 89.7776 30.0486 89.7665 30.0254C89.7464 29.9824 89.7271 29.9397 89.7046 29.8974C89.6963 29.8813 89.6888 29.8649 89.6805 29.8484C89.6525 29.7926 89.6236 29.7361 89.5944 29.6822L89.5549 29.6122L89.4993 29.5108L89.4559 29.436C89.4377 29.4045 89.4196 29.3731 89.401 29.3417C89.3864 29.3162 89.3714 29.2908 89.3564 29.2668C89.3359 29.2328 89.3169 29.1994 89.2944 29.1658L89.2376 29.0744C89.2107 29.0325 89.1839 28.9902 89.1562 28.9487C89.1389 28.9225 89.1215 28.8967 89.1037 28.8709C89.086 28.845 89.0666 28.8155 89.0477 28.7882C89.0287 28.7608 89.0082 28.7335 88.9909 28.7066C88.9735 28.6796 88.9545 28.6553 88.936 28.6317C88.9174 28.6081 88.8965 28.5767 88.8764 28.5494L88.8207 28.4745C88.7812 28.4248 88.7449 28.375 88.7062 28.3248L88.6522 28.2564C88.6293 28.2275 88.6056 28.1991 88.5823 28.1707L88.5302 28.1078C88.5061 28.079 88.4816 28.0505 88.4572 28.0217L88.4058 27.9626L88.3293 27.8757L88.2839 27.8256C88.1895 27.7219 88.0928 27.6198 87.9937 27.5202L87.9503 27.4764L87.8595 27.3877L87.8149 27.3451C87.7833 27.3148 87.7517 27.2848 87.7198 27.2552L87.687 27.2253C87.5753 27.1224 87.4604 27.0221 87.3436 26.9259L87.3116 26.8993C87.2755 26.8694 87.2392 26.8398 87.2026 26.8106L87.1663 26.7815C87.1268 26.7515 87.0909 26.722 87.0526 26.6924L87.0333 26.6778C86.9042 26.579 86.772 26.4828 86.6385 26.3904L86.62 26.3773C86.5777 26.3485 86.5355 26.32 86.4929 26.2919L86.4649 26.2736C86.4214 26.2448 86.3776 26.2167 86.3338 26.1887L86.3263 26.1842C86.181 26.0921 86.033 26.0039 85.8822 25.9196L85.8763 25.9158C85.8285 25.8893 85.7807 25.8634 85.733 25.8376L85.7121 25.8264C85.4578 25.6904 85.1968 25.5657 84.9289 25.4521L84.9123 25.445C84.8416 25.4151 84.7706 25.3863 84.6987 25.3578H86.1115C86.3417 25.3578 86.5284 25.1067 86.5284 24.7965C86.5284 24.4862 86.3417 24.2351 86.1115 24.2351H85.6907C85.7168 24.1722 85.7456 24.1011 85.7768 24.021C86.1747 23.786 86.875 23.2853 87.5698 22.3654L87.5753 22.3583C87.6279 22.2894 87.6796 22.2182 87.7304 22.1446L87.7407 22.13C87.7912 22.0578 87.8417 21.9833 87.8915 21.9054L87.9049 21.8849C87.9286 21.8474 87.9523 21.81 87.9759 21.7726C87.9759 21.7726 87.976 21.7696 87.9787 21.7677C88.0032 21.7303 88.0273 21.6891 88.0513 21.6491L88.0667 21.6233C88.0873 21.5888 88.1082 21.5537 88.1283 21.5181C88.1323 21.5117 88.1362 21.5054 88.1398 21.4986C88.1631 21.4582 88.1864 21.417 88.2092 21.3755L88.225 21.3467C88.244 21.3123 88.2625 21.2775 88.2811 21.2423C88.2866 21.2325 88.2921 21.2224 88.2973 21.2123C88.3194 21.17 88.3415 21.1274 88.3636 21.084L88.379 21.0537C88.3964 21.0185 88.4141 20.9826 88.4315 20.9466L88.4504 20.9092C88.4718 20.865 88.4927 20.8201 88.5136 20.7748L88.5266 20.746C88.544 20.7086 88.561 20.6712 88.5779 20.6338L88.5981 20.5888C88.6178 20.5436 88.6375 20.4979 88.6565 20.4519C88.66 20.4436 88.6636 20.435 88.6668 20.4268C88.6845 20.3845 88.7019 20.3415 88.7193 20.2981L88.739 20.2487C88.7552 20.2075 88.7714 20.166 88.7872 20.1244L88.799 20.093C88.8176 20.0436 88.8357 19.993 88.8539 19.9433L88.8728 19.8901C88.887 19.8505 88.9008 19.81 88.9147 19.7696C88.9198 19.7547 88.9249 19.7397 88.9297 19.7247C88.947 19.6731 88.9644 19.6203 88.9814 19.5675C88.9869 19.5492 88.9928 19.5301 88.9984 19.5129L89.0378 19.3898C89.043 19.3718 89.0485 19.3523 89.0536 19.3363C89.0698 19.282 89.086 19.2266 89.1014 19.1708C89.1065 19.1532 89.1112 19.1353 89.116 19.1173C89.1278 19.0743 89.1397 19.0312 89.1511 18.9875C89.1562 18.9676 89.1614 18.9478 89.1669 18.928C89.1815 18.8703 89.1961 18.8123 89.2103 18.7536L89.2222 18.7045C89.2332 18.6577 89.2443 18.6106 89.2549 18.5631L89.2691 18.4994C89.2826 18.4384 89.296 18.3774 89.3086 18.3153C89.3114 18.3033 89.3138 18.291 89.3161 18.2779C89.3272 18.2244 89.3378 18.1701 89.3481 18.1158C89.3524 18.0938 89.3564 18.0717 89.3607 18.0496C89.371 17.9938 89.3809 17.9373 89.3907 17.8816C89.3927 17.8696 89.3951 17.858 89.397 17.8464C89.4081 17.7805 89.4189 17.7142 89.4294 17.6473C89.433 17.6248 89.4365 17.6024 89.4397 17.5796C89.448 17.5253 89.4559 17.4707 89.4638 17.4153L89.4709 17.3644C89.4803 17.2955 89.4894 17.2263 89.4981 17.1559C89.5009 17.1338 89.5032 17.1117 89.506 17.0893C89.5128 17.0334 89.5192 16.9773 89.5249 16.9209C89.5273 16.9007 89.5297 16.8808 89.5317 16.8606C89.5393 16.7883 89.5464 16.7153 89.553 16.6417C89.553 16.6211 89.5565 16.6005 89.5581 16.5796C89.5632 16.5204 89.5684 16.4609 89.5727 16.4011C89.5727 16.379 89.5763 16.3569 89.5778 16.3348C89.5834 16.2585 89.5885 16.1816 89.5932 16.1043C89.5932 16.0867 89.5932 16.0669 89.596 16.0511C89.5996 15.9868 89.6031 15.922 89.6059 15.8569C89.6059 15.8333 89.6059 15.8098 89.609 15.7862C89.6122 15.7057 89.6153 15.6249 89.6177 15.5429C89.6177 15.5317 89.6177 15.5201 89.6177 15.5085C89.6198 15.4356 89.6214 15.362 89.6225 15.2877C89.6225 15.2634 89.6225 15.239 89.6225 15.2147C89.6225 15.1349 89.6225 15.0545 89.6225 14.9737V14.955C89.6225 14.8689 89.6225 14.7817 89.6225 14.693V14.6182C89.6225 14.5433 89.6193 14.4647 89.6173 14.3869V14.3446C89.6146 14.2548 89.611 14.1638 89.6075 14.0725C89.6075 14.0489 89.6051 14.025 89.6043 14.0014C89.6009 13.9246 89.5969 13.8472 89.5925 13.7694C89.5925 13.7503 89.5924 13.732 89.5893 13.7114C89.5838 13.6178 89.5777 13.5235 89.5711 13.4284L89.5664 13.3622C89.5605 13.2829 89.5546 13.2031 89.5478 13.1227C89.5478 13.0995 89.5443 13.0763 89.5423 13.0531C89.534 12.9558 89.5249 12.8573 89.5155 12.7585C89.5155 12.7398 89.5115 12.7211 89.5099 12.702C89.5017 12.6178 89.4926 12.5329 89.4835 12.4472C89.4807 12.4214 89.478 12.3959 89.4748 12.3701C89.4638 12.2683 89.4519 12.1661 89.4393 12.0625C89.4393 12.0497 89.4357 12.037 89.4342 12.025C89.4228 11.9322 89.4109 11.8389 89.3982 11.7451C89.3943 11.7174 89.3907 11.6897 89.3868 11.662C89.372 11.5557 89.3569 11.4486 89.3414 11.3405C87.7624 0.684323 76.5728 2.4137 76.5728 2.4137L76.9313 4.70333L70.1641 11.4809L70.4597 14.098L73.0232 15.5949C73.1375 15.3196 73.2842 15.0573 73.4606 14.8131C75.1146 13.0044 78.3235 11.5845 79.2421 11.29C79.4261 11.2313 79.5307 11.2017 79.5307 11.2017C75.1367 16.593 75.6365 22.7696 75.8323 24.2418C75.6286 24.2793 75.4711 24.5124 75.4711 24.7968C75.4711 25.1067 75.6578 25.3582 75.8879 25.3582H77.3007C74.9511 26.2907 73.0859 28.0666 72.1125 30.2982C72.1114 30.3013 72.1101 30.3043 72.1086 30.3072C72.0368 30.4729 71.9699 30.6409 71.9081 30.8113C71.9082 30.8131 71.9082 30.8148 71.9081 30.8166C71.8915 30.863 71.8753 30.9094 71.8595 30.9561C71.8536 30.973 71.8477 30.9898 71.8421 31.007C71.8279 31.049 71.8148 31.0912 71.8027 31.1339C71.7956 31.1556 71.7889 31.1777 71.7821 31.1994C71.7695 31.2394 71.7573 31.2799 71.7454 31.3203L71.7241 31.3951C71.7131 31.4326 71.702 31.4726 71.6917 31.5115C71.6842 31.5392 71.6771 31.5665 71.67 31.5942C71.6606 31.6317 71.6507 31.6691 71.6416 31.7065C71.6325 31.7439 71.6238 31.7814 71.6152 31.821C71.6065 31.8607 71.5954 31.9071 71.586 31.9505H71.0226C70.9143 31.9483 70.8066 31.9665 70.7058 32.0043C70.6051 32.042 70.5133 32.0984 70.4358 32.1703C70.3584 32.2421 70.2968 32.3279 70.2548 32.4226C70.2128 32.5172 70.1911 32.6189 70.1911 32.7216C70.1911 32.8244 70.2128 32.926 70.2548 33.0207C70.2968 33.1154 70.3584 33.2012 70.4358 33.273C70.5133 33.3448 70.6051 33.4013 70.7058 33.439C70.8066 33.4768 70.9143 33.495 71.0226 33.4928H90.9875C91.0958 33.495 91.2035 33.4768 91.3043 33.439C91.4051 33.4013 91.4969 33.3448 91.5743 33.273C91.6518 33.2012 91.7133 33.1154 91.7553 33.0207C91.7974 32.926 91.819 32.8244 91.819 32.7216C91.819 32.6189 91.7974 32.5172 91.7553 32.4226C91.7133 32.3279 91.6518 32.2421 91.5743 32.1703C91.4969 32.0984 91.4051 32.042 91.3043 32.0043C91.2035 31.9665 91.0958 31.9483 90.9875 31.9505L90.9804 31.9438Z" fill="#595653"/>
<path d="M99.3375 15V3.34411H102.335V7.95652H103.167L106.731 3.34411H109.994L105.498 8.78908L110.161 15H106.664L103.167 10.0546H102.335V15H99.3375ZM111.826 15.2165C111.737 15.2165 111.609 15.2109 111.443 15.1998C111.288 15.1998 111.165 15.1887 111.077 15.1665V12.5356C111.11 12.5467 111.193 12.5523 111.326 12.5523C111.548 12.5523 111.737 12.5245 111.893 12.469C112.059 12.4024 112.198 12.2692 112.309 12.0694C112.42 11.8585 112.514 11.5532 112.592 11.1536C112.681 10.7539 112.742 10.2211 112.775 9.55504C112.808 8.87788 112.825 8.02867 112.825 7.00739V3.34411H121.65V15H118.636V5.79185H115.622V7.34042C115.622 8.72802 115.567 9.89361 115.456 10.8372C115.345 11.7697 115.178 12.5245 114.956 13.1018C114.745 13.679 114.485 14.123 114.174 14.4339C113.863 14.7336 113.508 14.9389 113.108 15.05C112.72 15.161 112.292 15.2165 111.826 15.2165ZM126.32 15.2165C126.198 15.2165 126.076 15.2109 125.954 15.1998C125.843 15.1998 125.743 15.1832 125.654 15.1499V12.6688C125.743 12.6799 125.832 12.691 125.921 12.7021C126.009 12.7132 126.115 12.7188 126.237 12.7188C126.559 12.7188 126.809 12.6966 126.986 12.6522C127.164 12.5967 127.303 12.5079 127.403 12.3858C127.503 12.2525 127.586 12.0749 127.652 11.8529L122.973 3.34411H126.021L129.118 9.25531L131.549 3.34411H134.479L130.583 12.1526C130.328 12.7299 130.072 13.2128 129.817 13.6013C129.573 13.9898 129.29 14.3062 128.968 14.5504C128.657 14.7835 128.285 14.95 127.852 15.05C127.43 15.161 126.92 15.2165 126.32 15.2165ZM135.811 15V3.34411H144.386V5.8085H138.808V7.54023H140.723C142.344 7.54023 143.537 7.87326 144.303 8.53931C145.08 9.19426 145.469 10.0768 145.469 11.1869C145.469 12.3858 145.08 13.3238 144.303 14.0009C143.537 14.667 142.344 15 140.723 15H135.811ZM138.808 12.5356H140.39C141.112 12.5356 141.622 12.4191 141.922 12.1859C142.222 11.9417 142.371 11.6087 142.371 11.1869C142.371 10.765 142.222 10.4376 141.922 10.2044C141.622 9.96022 141.112 9.83811 140.39 9.83811H138.808V12.5356ZM105.399 33V28.3543C105.11 28.543 104.727 28.7151 104.25 28.8705C103.783 29.0148 103.228 29.087 102.584 29.087C101.374 29.087 100.459 28.7872 99.837 28.1878C99.2265 27.5772 98.9212 26.6004 98.9212 25.2572V21.3441H101.918V24.7576C101.918 25.4126 102.057 25.8844 102.335 26.173C102.612 26.4505 103.001 26.5893 103.5 26.5893C103.955 26.5893 104.338 26.5393 104.649 26.4394C104.96 26.3284 105.21 26.2118 105.399 26.0897V21.3441H108.412V33H105.399ZM110.736 33V21.3441H119.229V23.642H113.734V25.9232H118.729V28.0879H113.734V30.7021H119.229V33H110.736ZM124.216 33V23.8085H120.636V21.3441H130.793V23.8085H127.213V33H124.216ZM132.299 33V21.3441H135.296V25.2072H136.711C138.332 25.2072 139.525 25.5569 140.291 26.2562C141.068 26.9556 141.457 27.9047 141.457 29.1036C141.457 30.3025 141.068 31.2516 140.291 31.951C139.525 32.6503 138.332 33 136.711 33H132.299ZM135.296 30.5356H136.378C137.077 30.5356 137.583 30.4024 137.893 30.136C138.204 29.8696 138.36 29.5254 138.36 29.1036C138.36 28.6818 138.204 28.3376 137.893 28.0712C137.583 27.8048 137.077 27.6716 136.378 27.6716H135.296V30.5356ZM142.289 33V21.3441H145.286V33H142.289ZM147.616 33V21.3441H152.362C153.45 21.3441 154.343 21.5051 155.043 21.827C155.742 22.1378 156.258 22.593 156.591 23.1924C156.936 23.7807 157.108 24.4912 157.108 25.3238C157.108 26.1452 156.936 26.8557 156.591 27.4551C156.258 28.0546 155.742 28.5153 155.043 28.8372C154.343 29.148 153.45 29.3034 152.362 29.3034H150.614V33H147.616ZM150.614 26.839H152.029C152.795 26.839 153.333 26.7114 153.644 26.4561C153.955 26.2007 154.11 25.8233 154.11 25.3238C154.11 24.8242 153.955 24.4468 153.644 24.1915C153.333 23.9362 152.795 23.8085 152.029 23.8085H150.614V26.839ZM158.771 33V21.3441H167.264V23.642H161.769V25.9232H166.764V28.0879H161.769V30.7021H167.264V33H158.771ZM168.425 33L172.222 26.9223L168.592 21.3441H171.905L174.187 24.8742L176.501 21.3441H179.748L176.135 26.889L179.915 33H176.568L174.137 28.9204L171.706 33H168.425ZM185.655 33V21.3441H188.652V25.9565H189.485L193.048 21.3441H196.312L191.816 26.7891L196.478 33H192.981L189.485 28.0546H188.652V33H185.655ZM202.982 33.2165C202.227 33.2165 201.505 33.1055 200.817 32.8834C200.129 32.6614 199.524 32.3117 199.002 31.8344C198.48 31.3571 198.07 30.741 197.77 29.9861C197.47 29.2202 197.32 28.3099 197.32 27.2553V26.9223C197.32 25.901 197.47 25.024 197.77 24.2914C198.07 23.5587 198.48 22.9593 199.002 22.4931C199.524 22.0268 200.129 21.6827 200.817 21.4607C201.505 21.2387 202.227 21.1276 202.982 21.1276C203.759 21.1276 204.486 21.2387 205.163 21.4607C205.84 21.6827 206.44 22.0268 206.961 22.4931C207.483 22.9593 207.894 23.5587 208.194 24.2914C208.493 25.024 208.643 25.901 208.643 26.9223V27.2553C208.643 28.3099 208.493 29.2202 208.194 29.9861C207.894 30.741 207.483 31.3571 206.961 31.8344C206.44 32.3117 205.84 32.6614 205.163 32.8834C204.486 33.1055 203.759 33.2165 202.982 33.2165ZM202.965 30.7188C203.42 30.7188 203.842 30.6189 204.231 30.4191C204.619 30.2081 204.93 29.8585 205.163 29.37C205.407 28.8705 205.529 28.1656 205.529 27.2553V26.9223C205.529 26.0564 205.407 25.3848 205.163 24.9075C204.93 24.4301 204.619 24.0971 204.231 23.9084C203.842 23.7197 203.42 23.6253 202.965 23.6253C202.532 23.6253 202.122 23.7197 201.733 23.9084C201.344 24.0971 201.028 24.4301 200.784 24.9075C200.54 25.3848 200.418 26.0564 200.418 26.9223V27.2553C200.418 28.1656 200.54 28.8705 200.784 29.37C201.028 29.8585 201.344 30.2081 201.733 30.4191C202.122 30.6189 202.532 30.7188 202.965 30.7188ZM210.55 33V21.3441H213.548V25.7734H217.877V21.3441H220.874V33H217.877V28.2377H213.548V33H210.55ZM223.201 33V21.3441H231.694V23.642H226.199V25.9232H231.194V28.0879H226.199V30.7021H231.694V33H223.201ZM233.608 33V21.3441H236.606V28.3376L241.185 21.3441H243.932V33H240.935V26.0065L236.356 33H233.608ZM238.77 20.6947C237.993 20.6947 237.355 20.5893 236.855 20.3783C236.367 20.1563 236.006 19.8344 235.773 19.4126C235.551 18.9907 235.44 18.4634 235.44 17.8307H237.871C237.871 18.2969 237.938 18.6133 238.071 18.7798C238.215 18.9352 238.448 19.0129 238.77 19.0129C239.092 19.0129 239.32 18.9352 239.453 18.7798C239.597 18.6133 239.67 18.2969 239.67 17.8307H242.101C242.101 18.4634 241.984 18.9907 241.751 19.4126C241.529 19.8344 241.174 20.1563 240.685 20.3783C240.197 20.5893 239.558 20.6947 238.77 20.6947Z" fill="#595653"/>
</svg>
